<svg xmlns="http://www.w3.org/2000/svg" xmlns:xlink="http://www.w3.org/1999/xlink">

<symbol id="dribbble" fill-rule="evenodd" clip-rule="evenodd" stroke-linejoin="round" stroke-miterlimit="1.414"><path d="M8 16c-4.41 0-8-3.59-8-8s3.59-8 8-8 8 3.59 8 8-3.59 8-8 8zm6.747-6.905c-.234-.074-2.115-.635-4.257-.292.894 2.456 1.258 4.456 1.328 4.872 1.533-1.037 2.624-2.68 2.93-4.58zM10.67 14.3c-.102-.6-.5-2.688-1.46-5.18l-.044.014C5.312 10.477 3.93 13.15 3.806 13.4c1.158.905 2.614 1.444 4.194 1.444.947 0 1.85-.194 2.67-.543zm-7.747-1.72c.155-.266 2.03-3.37 5.555-4.51.09-.03.18-.056.27-.08-.173-.39-.36-.778-.555-1.16-3.413 1.02-6.723.977-7.023.97l-.003.208c0 1.755.665 3.358 1.756 4.57zM1.31 6.61c.307.005 3.122.017 6.318-.832-1.132-2.012-2.353-3.705-2.533-3.952-1.912.902-3.34 2.664-3.784 4.785zM6.4 1.368c.188.253 1.43 1.943 2.548 4 2.43-.91 3.46-2.293 3.582-2.468C11.323 1.827 9.736 1.176 8 1.176c-.55 0-1.087.066-1.6.19zm6.89 2.322c-.145.194-1.29 1.662-3.816 2.694.16.325.31.656.453.99.05.117.1.235.147.352 2.274-.286 4.533.172 4.758.22-.015-1.613-.59-3.094-1.543-4.257z"/></symbol>

<symbol id="facebook" fill-rule="evenodd" clip-rule="evenodd" stroke-linejoin="round" stroke-miterlimit="1.414"><path d="M15.117 0H.883C.395 0 0 .395 0 .883v14.234c0 .488.395.883.883.883h7.663V9.804H6.46V7.39h2.086V5.607c0-2.066 1.262-3.19 3.106-3.19.883 0 1.642.064 1.863.094v2.16h-1.28c-1 0-1.195.48-1.195 1.18v1.54h2.39l-.31 2.42h-2.08V16h4.077c.488 0 .883-.395.883-.883V.883C16 .395 15.605 0 15.117 0" fill-rule="nonzero"/></symbol>

<symbol id="flickr" fill-rule="evenodd" clip-rule="evenodd" stroke-linejoin="round" stroke-miterlimit="1.414"><path d="M0 8c0 2.05 1.662 3.71 3.71 3.71 2.05 0 3.713-1.66 3.713-3.71S5.76 4.29 3.71 4.29C1.663 4.29 0 5.95 0 8zm8.577 0c0 2.05 1.662 3.71 3.712 3.71C14.33 11.71 16 10.05 16 8s-1.662-3.71-3.71-3.71c-2.05 0-3.713 1.66-3.713 3.71z"/></symbol>

<symbol id="github" fill-rule="evenodd" clip-rule="evenodd" stroke-linejoin="round" stroke-miterlimit="1.414"><path d="M8 0C3.58 0 0 3.582 0 8c0 3.535 2.292 6.533 5.47 7.59.4.075.547-.172.547-.385 0-.19-.007-.693-.01-1.36-2.226.483-2.695-1.073-2.695-1.073-.364-.924-.89-1.17-.89-1.17-.725-.496.056-.486.056-.486.803.056 1.225.824 1.225.824.714 1.223 1.873.87 2.33.665.072-.517.278-.87.507-1.07-1.777-.2-3.644-.888-3.644-3.953 0-.873.31-1.587.823-2.147-.09-.202-.36-1.015.07-2.117 0 0 .67-.215 2.2.82.64-.178 1.32-.266 2-.27.68.004 1.36.092 2 .27 1.52-1.035 2.19-.82 2.19-.82.43 1.102.16 1.915.08 2.117.51.56.82 1.274.82 2.147 0 3.073-1.87 3.75-3.65 3.947.28.24.54.73.54 1.48 0 1.07-.01 1.93-.01 2.19 0 .21.14.46.55.38C13.71 14.53 16 11.53 16 8c0-4.418-3.582-8-8-8"/></symbol>

<symbol id="googleplus" fill-rule="evenodd" clip-rule="evenodd" stroke-linejoin="round" stroke-miterlimit="1.414"><path d="M5.09 7.273v1.745h2.89c-.116.75-.873 2.197-2.887 2.197-1.737 0-3.155-1.44-3.155-3.215S3.353 4.785 5.09 4.785c.99 0 1.652.422 2.03.786l1.382-1.33c-.887-.83-2.037-1.33-3.41-1.33C2.275 2.91 0 5.19 0 8s2.276 5.09 5.09 5.09c2.94 0 4.888-2.065 4.888-4.974 0-.334-.036-.59-.08-.843H5.09zm10.91 0h-1.455V5.818H13.09v1.455h-1.454v1.454h1.455v1.455h1.46V8.727H16"/></symbol>

<symbol id="instagram" fill-rule="evenodd" clip-rule="evenodd" stroke-linejoin="round" stroke-miterlimit="1.414"><path d="M8 0C5.827 0 5.555.01 4.702.048 3.85.088 3.27.222 2.76.42c-.526.204-.973.478-1.417.923-.445.444-.72.89-.923 1.417-.198.51-.333 1.09-.372 1.942C.008 5.555 0 5.827 0 8s.01 2.445.048 3.298c.04.852.174 1.433.372 1.942.204.526.478.973.923 1.417.444.445.89.72 1.417.923.51.198 1.09.333 1.942.372.853.04 1.125.048 3.298.048s2.445-.01 3.298-.048c.852-.04 1.433-.174 1.942-.372.526-.204.973-.478 1.417-.923.445-.444.72-.89.923-1.417.198-.51.333-1.09.372-1.942.04-.853.048-1.125.048-3.298s-.01-2.445-.048-3.298c-.04-.852-.174-1.433-.372-1.942-.204-.526-.478-.973-.923-1.417-.444-.445-.89-.72-1.417-.923-.51-.198-1.09-.333-1.942-.372C10.445.008 10.173 0 8 0zm0 1.44c2.136 0 2.39.01 3.233.048.78.036 1.203.166 1.485.276.374.145.64.318.92.598.28.28.453.546.598.92.11.282.24.705.276 1.485.038.844.047 1.097.047 3.233s-.01 2.39-.05 3.233c-.04.78-.17 1.203-.28 1.485-.15.374-.32.64-.6.92-.28.28-.55.453-.92.598-.28.11-.71.24-1.49.276-.85.038-1.1.047-3.24.047s-2.39-.01-3.24-.05c-.78-.04-1.21-.17-1.49-.28-.38-.15-.64-.32-.92-.6-.28-.28-.46-.55-.6-.92-.11-.28-.24-.71-.28-1.49-.03-.84-.04-1.1-.04-3.23s.01-2.39.04-3.24c.04-.78.17-1.21.28-1.49.14-.38.32-.64.6-.92.28-.28.54-.46.92-.6.28-.11.7-.24 1.48-.28.85-.03 1.1-.04 3.24-.04zm0 2.452c-2.27 0-4.108 1.84-4.108 4.108 0 2.27 1.84 4.108 4.108 4.108 2.27 0 4.108-1.84 4.108-4.108 0-2.27-1.84-4.108-4.108-4.108zm0 6.775c-1.473 0-2.667-1.194-2.667-2.667 0-1.473 1.194-2.667 2.667-2.667 1.473 0 2.667 1.194 2.667 2.667 0 1.473-1.194 2.667-2.667 2.667zm5.23-6.937c0 .53-.43.96-.96.96s-.96-.43-.96-.96.43-.96.96-.96.96.43.96.96z"/></symbol>

<symbol id="linkedin" fill-rule="evenodd" clip-rule="evenodd" stroke-linejoin="round" stroke-miterlimit="1.414"><path d="M13.632 13.635h-2.37V9.922c0-.886-.018-2.025-1.234-2.025-1.235 0-1.424.964-1.424 1.96v3.778h-2.37V6H8.51v1.04h.03c.318-.6 1.092-1.233 2.247-1.233 2.4 0 2.845 1.58 2.845 3.637v4.188zM3.558 4.955c-.762 0-1.376-.617-1.376-1.377 0-.758.614-1.375 1.376-1.375.76 0 1.376.617 1.376 1.375 0 .76-.617 1.377-1.376 1.377zm1.188 8.68H2.37V6h2.376v7.635zM14.816 0H1.18C.528 0 0 .516 0 1.153v13.694C0 15.484.528 16 1.18 16h13.635c.652 0 1.185-.516 1.185-1.153V1.153C16 .516 15.467 0 14.815 0z" fill-rule="nonzero"/></symbol>

<symbol id="pinterest" fill-rule="evenodd" clip-rule="evenodd" stroke-linejoin="round" stroke-miterlimit="1.414"><path d="M8 0C3.582 0 0 3.582 0 8c0 3.39 2.108 6.285 5.084 7.45-.07-.633-.133-1.604.028-2.295.146-.625.938-3.977.938-3.977s-.24-.48-.24-1.188c0-1.11.646-1.943 1.448-1.943.683 0 1.012.513 1.012 1.127 0 .687-.436 1.713-.662 2.664-.19.797.4 1.445 1.185 1.445 1.42 0 2.514-1.498 2.514-3.662 0-1.91-1.376-3.25-3.342-3.25-2.276 0-3.61 1.71-3.61 3.47 0 .69.263 1.43.593 1.83.066.08.075.15.057.23-.06.25-.196.8-.223.91-.035.15-.115.18-.268.11C3.516 10.46 2.89 9 2.89 7.82c0-2.52 1.834-4.84 5.287-4.84 2.774 0 4.932 1.98 4.932 4.62 0 2.76-1.74 4.98-4.16 4.98-.81 0-1.57-.42-1.84-.92l-.5 1.9c-.18.698-.67 1.57-1 2.1.75.23 1.54.357 2.37.357 4.41 0 8-3.58 8-8s-3.59-8-8-8z" fill-rule="nonzero"/></symbol>

<symbol id="rss" fill-rule="evenodd" clip-rule="evenodd" stroke-linejoin="round" stroke-miterlimit="1.414"><path d="M12.8 16C12.8 8.978 7.022 3.2 0 3.2V0c8.777 0 16 7.223 16 16h-3.2zM2.194 11.61c1.21 0 2.195.985 2.195 2.196 0 1.21-.99 2.194-2.2 2.194C.98 16 0 15.017 0 13.806c0-1.21.983-2.195 2.194-2.195zM10.606 16h-3.11c0-4.113-3.383-7.497-7.496-7.497v-3.11c5.818 0 10.606 4.79 10.606 10.607z"/></symbol>

<symbol id="stackoverflow" class="svg-icon" xmlns="http://www.w3.org/2000/svg" fill-rule="evenodd" clip-rule="evenodd" stroke-linejoin="round" stroke-miterlimit="1.414"><path d="M12.658 14.577v-4.27h1.423V16H1.23v-5.693h1.42v4.27h10.006zm-8.583-1.423h7.16V11.73h-7.16v1.424zm.173-3.235l6.987 1.46.3-1.38L4.55 8.54l-.302 1.38zm.906-3.37l6.47 3.02.602-1.3-6.47-3.02-.602 1.29zm1.81-3.19l5.478 4.57.906-1.08L7.87 2.28l-.9 1.078zM10.502 0L9.338.863l4.27 5.735 1.164-.862L10.5 0z"/></symbol>

<symbol id="twitter" fill-rule="evenodd" clip-rule="evenodd" stroke-linejoin="round" stroke-miterlimit="1.414"><path d="M16 3.038c-.59.26-1.22.437-1.885.517.677-.407 1.198-1.05 1.443-1.816-.634.37-1.337.64-2.085.79-.598-.64-1.45-1.04-2.396-1.04-1.812 0-3.282 1.47-3.282 3.28 0 .26.03.51.085.75-2.728-.13-5.147-1.44-6.766-3.42C.83 2.58.67 3.14.67 3.75c0 1.14.58 2.143 1.46 2.732-.538-.017-1.045-.165-1.487-.41v.04c0 1.59 1.13 2.918 2.633 3.22-.276.074-.566.114-.865.114-.21 0-.41-.02-.61-.058.42 1.304 1.63 2.253 3.07 2.28-1.12.88-2.54 1.404-4.07 1.404-.26 0-.52-.015-.78-.045 1.46.93 3.18 1.474 5.04 1.474 6.04 0 9.34-5 9.34-9.33 0-.14 0-.28-.01-.42.64-.46 1.2-1.04 1.64-1.7z" fill-rule="nonzero"/></symbol>

<symbol id="youtube" fill-rule="evenodd" clip-rule="evenodd" stroke-linejoin="round" stroke-miterlimit="1.414"><path d="M0 7.345c0-1.294.16-2.59.16-2.59s.156-1.1.636-1.587c.608-.637 1.408-.617 1.764-.684C3.84 2.36 8 2.324 8 2.324s3.362.004 5.6.166c.314.038.996.04 1.604.678.48.486.636 1.588.636 1.588S16 6.05 16 7.346v1.258c0 1.296-.16 2.59-.16 2.59s-.156 1.102-.636 1.588c-.608.638-1.29.64-1.604.678-2.238.162-5.6.166-5.6.166s-4.16-.037-5.44-.16c-.356-.067-1.156-.047-1.764-.684-.48-.487-.636-1.587-.636-1.587S0 9.9 0 8.605v-1.26zm6.348 2.73V5.58l4.323 2.255-4.32 2.24z"/></symbol>

<symbol id="mastodon" fill-rule="evenodd" clip-rule="evenodd" stroke-linejoin="round" stroke-miterlimit="1.414">
  <path transform="scale(0.07)" d="M211.80734 139.0875c-3.18125 16.36625-28.4925 34.2775-57.5625 37.74875-15.15875 1.80875-30.08375 3.47125-45.99875 2.74125-26.0275-1.1925-46.565-6.2125-46.565-6.2125 0 2.53375.15625 4.94625.46875 7.2025 3.38375 25.68625 25.47 27.225 46.39125 27.9425 21.11625.7225 39.91875-5.20625 39.91875-5.20625l.8675 19.09s-14.77 7.93125-41.08125 9.39c-14.50875.7975-32.52375-.365-53.50625-5.91875C9.23234 213.82 1.40609 165.31125.20859 116.09125c-.365-14.61375-.14-28.39375-.14-39.91875 0-50.33 32.97625-65.0825 32.97625-65.0825C49.67234 3.45375 78.20359.2425 107.86484 0h.72875c29.66125.2425 58.21125 3.45375 74.8375 11.09 0 0 32.975 14.7525 32.975 65.0825 0 0 .41375 37.13375-4.59875 62.915"/>
  <path transform="scale(0.07)" fill="#FFF" d="M177.50984 80.077v60.94125h-24.14375v-59.15c0-12.46875-5.24625-18.7975-15.74-18.7975-11.6025 0-17.4175 7.5075-17.4175 22.3525v32.37625H96.20734V85.42325c0-14.845-5.81625-22.3525-17.41875-22.3525-10.49375 0-15.74 6.32875-15.74 18.7975v59.15H38.90484V80.077c0-12.455 3.17125-22.3525 9.54125-29.675 6.56875-7.3225 15.17125-11.07625 25.85-11.07625 12.355 0 21.71125 4.74875 27.8975 14.2475l6.01375 10.08125 6.015-10.08125c6.185-9.49875 15.54125-14.2475 27.8975-14.2475 10.6775 0 19.28 3.75375 25.85 11.07625 6.36875 7.3225 9.54 17.22 9.54 29.675"/>
</symbol>

<symbol id="caricatura" fill-rule="evenodd" width="24" height="24" viewBox="0 0 24 24">
<path fill="#444" d="M7.771 15.408c-0.108-0.075-0.243 0.217-0.37 0.277-0.421-0.348-0.85-0.689-0.97-1.34 0.13-0.456 0.819-0.351 1.155-0.6-0.046-0.073-0.25-0.391-0.046-0.416 0.402 0.645 0.226 1.348 0.231 2.079zM16.178 7.971c0.003-0.028 0.007-0.055 0.046-0.046 0.152 0.571-0.119 1.566 0.231 1.94-0.322-0.063-0.526-0.244-0.878-0.277-0.096 0.258-0.527 0.181-0.693 0.37-0.045-0.109-0.231-0.077-0.231-0.231 0.145-0.023 0.189 0.109 0.231-0.046-0.895-0.013-1.155-0.569-1.755-0.878-0.531-0.273-1.36-0.614-1.755-0.231-0.131 0.038-0.12-0.065-0.231-0.046-0.183 0.187-0.446 0.293-0.6 0.508-0.023-0.249-0.014-0.668-0.046-0.831 0.082-0.393 0.030-1.837 0.416-2.356 1.474-0.378 2.88 0.287 2.864 1.663-0.104 0.138-0.271 0.316-0.185 0.508 0.094-0.093 0.123-0.012 0.185 0.046 0.566-0.427 0.261-1.522-0.092-1.94 0.905 0.486 2.478 0.779 2.494 1.848zM8.972 2.982c-0.699-0.025-1.046-0.802-2.079-0.647-0.2 0.486-0.824 0.359-1.062 0.785-0.079 0.141 0.019 0.338-0.046 0.508-0.155 0.404-0.629 0.468-0.924 0.785-0.203 0.218-0.274 0.528-0.416 0.878-0.4 0.989-0.813 1.756-0.462 3.002 0.138-0.030-0.044-0.099 0-0.185 0.209 0.007 0.186 0.245 0.185 0.462-0.059 0.079-0.184 0.093-0.231 0.185 0.076 0.14 0.183 0.248 0.139 0.508 0.685 0.377 0.456 1.669 0.97 2.217-0.142 0.351-0.12 0.866-0.185 1.293 0.22-0.981 0.23-1.892 1.109-2.217 0.33 0.594 0.864 0.983 1.016 1.755-0.458-0.389-0.56-1.134-1.478-1.062-0.241 0.444-0.482 1.307-0.046 1.617-0.058-0.245-0.036-0.482 0.046-0.878 0.229-0.123 0.37-0.408 0.6-0.185-0.064 0.151-0.212 0.219-0.323 0.323 0.172 0.35 0.012 0.591 0.185 0.97 0.018-0.179-0.118-0.79 0.277-0.831 0.199 0.423-0.261 0.809 0.046 1.109 0.083-0.456 0.309-0.166 0.554-0.185 0.027 0.15-0.031 0.215-0.046 0.323-0.079 0.002-0.12-0.034-0.139-0.092-0.153 0.268-0.668 0.397-0.647 0.785-0.123 0-0.264-0.017-0.323 0.046-0.162 0.008-0.145-0.163-0.231-0.231-0.183 0.508 0.402 1.002 0.693 1.34-0.437-0.21-0.735-0.558-0.97-0.97 0.067 0.709 0.836 0.902 1.34 1.293 0.59 0.459 0.74 1.136 1.247 1.663 0.496 1.4 1.139 3.294 1.986 4.573 0.183 0.276 0.478 0.486 0.554 0.785 0.166 0.653-0.002 1.609-0.277 1.986 0.105 0.111 0.172 0.259 0.323 0.323-0.051-0.258 0.267-0.095 0.277 0-0.005-0.267 0.035-1.101-0.046-1.617 0.421 0.502 0.579 1.268 0.924 1.848-0.018 0.214-0.077 0.286 0.092 0.37 0.116-0.166-0.098-0.392-0.185-0.647-0.114-0.336-0.154-0.761-0.37-0.97-0.016-0.533-0.602-0.709-0.508-1.201-0.104-0.096-0.132-0.268-0.231-0.37 0.042-0.273-0.079-0.383-0.092-0.6-0.537-0.294-0.597-1.066-0.924-1.571-0.007-0.115 0.024-0.192 0.092-0.231-0.052-0.086-0.055-0.223-0.231-0.185 0.116-0.111 0.044-0.122 0.046-0.323-0.094 0.026-0.091 0.139-0.185 0.046 0.29-0.732-0.363-1.292-0.508-2.079-0.083-0.006-0.097 0.057-0.185 0.046-0.043-0.403-0.114-0.697-0.092-1.109 0.552 0.137 0.859 1.082 1.571 1.34-0.030-0.271 0.212 0.050 0.277-0.092 0.166 0.016-0.016-0.168 0.092-0.277 0.071 0.142 0.1 0.279-0.092 0.416 0.421 1.075 0.765 2.537 2.032 2.91 0.067 0.143-0.008 0.179-0.092 0.277 0.291 0.094 0.724 0.046 0.97 0.185 0.227 0.626 0.216 1.111 0.416 1.617-0.183-0.017-0.266-0.134-0.323-0.277-0.29 0.072-0.359 0.017-0.554 0.139-0.054 0.408-0.065 0.634-0.323 0.878 0.026 0.487 0.381 0.441 0.508 0.6 0.122 0.039 0.060-0.21 0.046-0.277 0.258-0.419 0.623-0.732 0.878-1.155 0.138 0.235-0.163 0.726 0 1.109 0.010-0.361 0.232-1.022 0.046-1.432 0.275-0.063-0.075-0.313 0.139-0.554-0.362-0.073-0.014-0.443 0.092-0.462 0.032-0.263-0.078-0.384-0.046-0.647-0.067 0.010-0.016 0.138-0.092 0.139-0.3-0.7 0.807-0.999 0.462-1.894 0.538-0.432 1.342-0.598 1.524-1.386-0.33 0.658-1.302 0.514-1.663 0.97-0.805 0.178-1.182-0.308-1.478-0.878-0.063 0.014-0.038 0.116-0.046 0.185-0.126-0.167-0.268-0.317-0.37-0.508-0.278 0.664 0.577 1.176 0.37 1.755-0.037-0.040-0.127-0.027-0.139-0.092-0.166 0.11 0.359 0.159 0.231 0.231 0.207-0.089 0.801-0.321 1.201-0.231 0.064 0.123 0.195 0.428 0.046 0.693-0.515 0.43-0.856 0.034-1.524 0.277-0.371-0.090-0.45-0.474-0.739-0.647-0.102-0.025-0.066 0.088-0.139 0.092-0.402-0.325-0.533-0.985-0.924-1.432 0.047-0.13 0.196 0.013 0.277 0-0.109-0.207-0.233-0.539-0.323-0.508 0.015-0.108 0.073-0.173 0.046-0.323-0.353-0.426-0.232-0.983-0.693-1.109-0.181-1.209-0.863-2.096-1.016-3.557-0.035 0.073-0.147 0.069-0.139 0.185-0.636-0.505-0.304-1.547-0.693-2.171-0.197-1.799 1.274-1.929 1.94-2.864 0.19 1.094 0.311 2.466-0.37 3.28 0.539-0.092 0.806-0.857 0.924-1.524 0.435-0.21 1.093-0.537 1.709-0.277 0.123 0.107-0.123 0.124 0 0.231 0.133-0.010 0.235 0.012 0.277 0.092-0.112 0.072-0.651 0.060-0.508-0.139-0.202 0.295-0.543-0.017-0.924 0.046 0.425 0.206 1.014 0.249 1.432 0.462 0.006-0.083-0.057-0.097-0.046-0.185 0.278-0.012 0.491 0.168 0.37 0.416 0.105-0.013 0.174 0.011 0.185 0.092-0.020 0.069-0.059-0.018-0.139 0 0.088 0.392 0.756 0.228 0.785-0.092 0.146 0.065 0.232 0.24 0.416 0.139-0.020-0.13-0.059-0.365-0.139-0.554 0.831 0.006 1.060 0.914 1.802 1.062-0.037-0.102-0.217-0.060-0.231-0.185 0.389 0.058 0.601 0.292 1.016 0.323 0.201-0.076 0.302-0.252 0.508-0.323-0.020-0.303-0.205-0.442-0.462-0.508-0.066-0.744 0.201-1.154 0.554-1.478 0.209 0.084 0.275 0.31 0.323 0.554 0.143-0.057 0.203-0.198 0.231-0.37 0.663 0.266 1.348 0.046 1.986 0.231 0.092-0.37 0.554-0.369 0.739-0.647 0.002-0.141-0.098-0.18-0.139-0.277-0.054 0.007-0.039 0.084-0.046 0.139-0.092-0.047-0.197-0.080-0.231-0.185-0.057-0.149 0.149-0.035 0.092-0.185-0.237-0.148-0.353-0.417-0.647-0.508 0.039-0.193-0.090-0.218-0.092-0.37-1.028-0.681-1.805-1.614-2.587-2.541-0.060-0.115 0.103-0.224 0-0.231-0.529-0.641-1.394-0.946-2.125-1.386v-0.185c-1.663-0.243-4.074-1.301-5.127 0.323-0.428-0.212-0.626-0.263-1.016-0.37-0.044 0.169 0.387 0.259 0.462 0.462z"></path>
<path fill="#444" d="M16.594 14.623c-0.507-0.026-0.543-0.877-0.831-0.37-0.298-0.482-1.115-0.658-1.432-0.97 0.458-0.148 0.553 0.338 0.97 0.092-0.639-0.239-1.29-0.466-2.125-0.508 0.268 0.117 0.571 0.199 0.878 0.277-0.030 0.047-0.106 0.048-0.092 0.139-0.463-0.076-0.907-0.17-1.432-0.185-0.039 0.193 0.125 0.183 0.185 0.277-0.251 0.127-0.475-0.171-0.785-0.139 0.55 0.774 1.946 0.702 2.725 1.247-0.126 0.313 0.256 0.428 0.231 0.785 0.055-0.053 0.163-0.052 0.277-0.046 0.126 0.21-0.163 0.123-0.046 0.323-0.476-0.048-0.847-0.2-0.924-0.647-0.208 0.111-0.254-0.162-0.462-0.185-0.126-0.042 0.141-0.103 0-0.185-0.673-0.389-1.64-0.485-2.217-0.97-0.085-0.473-0.468-1.039-0.924-1.293 0.027-0.28 0.232-0.384 0.416-0.508-0.204-0.079-0.378 0.268-0.647 0.277 0.106 0.24-0.23 0.566-0.046 0.878 0.043-0.034 0.070-0.084 0.092-0.139 1.276 0.926 1.668 2.735 2.633 3.973 0.079 0.017 0.087-0.036 0.092-0.092 0.135 0.101 0.016 0.189 0.139 0.323 0.162-0.020 0.199-0.094 0.277-0.092-0.69-0.543-1.172-1.649-1.709-2.494 0.436 0.238 0.831 0.481 1.34 0.739 0.065-0.016 0.004-0.081-0.046-0.092 0.679 0.247 1.628 0.986 2.633 0.462 0.264 0.486-0.339 0.881-0.185 1.386 0.126 0.004 0.093-0.077 0.185 0-0.001 0.263 0.036 0.279 0 0.508 0.054-0.737 0.034-1.758 0.508-2.31 0.044 0.29-0.203 0.289-0.185 0.554 0.312-0.163 0.209-0.558 0.323-0.739 0.218-0.346 0.607-0.375 0.878-0.693-0.066-0.2-0.195 0.078-0.416 0 0.106-0.154 0.069-0.15 0-0.323-0.18 0.419-0.273 0.286-0.277 0.739z"></path>
</svg>


</svg>
