<svg width="245" height="93" viewBox="0 0 245 93" fill="none" xmlns="http://www.w3.org/2000/svg">
<path fill-rule="evenodd" clip-rule="evenodd" d="M141.095 30.2646C135.517 20.871 125.326 15.1284 113.675 15.1284C96.0378 15.1284 82.2856 28.7207 82.2856 46.5C82.2856 64.2793 96.0378 79.2393 113.675 79.2393C125.326 79.2393 135.517 72.4027 141.095 63.009H157.082C150.475 80.5397 133.384 93 113.675 93C88.1988 93 67 72.1813 67 46.5C67 20.8187 88.1988 0 113.675 0C133.384 0 150.475 12.7339 157.082 30.2646H141.095V30.2646ZM165 41.0296L148.894 52.5177H128.688C126.334 58.5986 120.443 62.9118 113.543 62.9118C104.573 62.9118 97.3008 55.6253 97.3008 46.6368C97.3008 37.6483 104.573 30.3618 113.543 30.3618C120.547 30.3618 126.515 34.8038 128.795 41.0296H165Z" fill="#4EAF0A"/>
<path d="M15.5391 16.1426L16.0532 23.2837C20.4712 17.7612 26.3936 15 33.8203 15C40.3711 15 45.2461 16.9233 48.4453 20.77C51.6445 24.6167 53.2822 30.3677 53.3584 38.0229V77.9561H36.8481V38.4229C36.8481 34.9189 36.0864 32.3862 34.563 30.8247C33.0396 29.2251 30.5068 28.4253 26.9648 28.4253C22.3184 28.4253 18.8335 30.4058 16.5103 34.3667V77.9561H0V16.1426H15.5391Z" fill="#202020"/>
<path d="M222.976 59.7985L231.425 15H244.313L230.39 77.96H217.373L207.157 35.8425L196.941 77.96H183.923L170 15H182.888L191.38 59.712L201.725 15H212.674L222.976 59.7985Z" fill="#202020"/>
</svg>
